<svg width="103" height="103" viewBox="0 0 103 103" fill="none" xmlns="http://www.w3.org/2000/svg">
<g clip-path="url(#clip0)">
<path d="M52.5621 99.104H50.6039C49.6771 99.104 48.9256 98.3526 48.9256 97.4258V43.4157H54.2404V97.4258C54.2404 98.3526 53.4891 99.104 52.5621 99.104Z" fill="#B3E59F"/>
<path d="M54.2397 43.4153V97.4248C54.2397 98.3532 53.4895 99.1034 52.5631 99.1034H50.6047C50.4845 99.1034 50.3664 99.091 50.2545 99.0682C51.015 98.9065 51.5829 98.233 51.5829 97.4248V43.4153H54.2397Z" fill="#95D6A4"/>
<path d="M48.9258 88.1809C48.9258 88.1809 46.7765 77.1488 35.4938 77.2874C34.411 77.3007 33.6077 78.2996 33.8529 79.3545C34.6804 82.913 37.7399 89.9651 48.9258 88.1809Z" fill="#B3E59F"/>
<path d="M48.926 88.1818C47.4484 88.418 46.1137 88.4988 44.9076 88.4532C44.4123 86.4741 42.085 79.0714 34.5931 77.5564C34.8522 77.3906 35.1589 77.2912 35.4946 77.287C46.7769 77.1482 48.926 88.1818 48.926 88.1818Z" fill="#95D6A4"/>
<path d="M68.0738 20.9429L60.2759 20.5643L63.9998 13.7025C65.3979 11.1262 64.4429 7.90444 61.8667 6.50659C59.2905 5.10853 56.0689 6.06351 54.6708 8.63974L51.4992 14.4838L48.2384 8.68886C46.801 6.13438 43.5651 5.22873 41.0106 6.66617C38.4561 8.10361 37.5505 11.3395 38.9879 13.894L42.2487 19.6889L35.6072 19.3664C32.6797 19.2242 30.1911 21.4824 30.0489 24.4099C29.9068 27.3374 32.1649 29.826 35.0924 29.9681L42.8903 30.3468L39.1666 37.2086C37.7685 39.7848 38.7235 43.0064 41.2997 44.4044C43.876 45.8025 47.0975 44.8475 48.4956 42.2713L51.6672 36.427L54.928 42.222C56.3654 44.7764 59.6013 45.6821 62.1558 44.2447C64.7103 42.8072 65.6157 39.5713 64.1785 37.0169L60.9177 31.2219L67.5592 31.5444C70.4867 31.6866 72.9753 29.4285 73.1175 26.5009C73.2594 23.5734 71.0015 21.0851 68.0738 20.9429Z" fill="#CA2E43"/>
<path d="M43.5881 8.68886L46.8488 14.4838L49.1318 10.277L48.2382 8.68907C46.8524 6.2262 43.7949 5.29692 41.2879 6.52173C42.2253 6.97704 43.0385 7.71192 43.5881 8.68886Z" fill="#AC2538"/>
<path d="M47.0169 36.4272L43.8453 42.2715C43.2967 43.2824 42.4665 44.0424 41.5055 44.5097C44.0451 45.7501 47.1344 44.7795 48.4956 42.2715L49.3841 40.6343L47.0169 36.4272Z" fill="#AC2538"/>
<path d="M61.0483 31.4543L56.2674 31.2221L59.5282 37.0171C60.9656 39.5715 60.0599 42.8074 57.5055 44.2449C57.4139 44.2965 57.3212 44.3441 57.228 44.3895C58.7413 45.1254 60.5782 45.1325 62.1556 44.2449C64.71 42.8074 65.6157 39.5715 64.1783 37.0171L61.0483 31.4543Z" fill="#AC2538"/>
<path d="M68.0738 20.9429L60.2759 20.5643L63.9998 13.7025C65.3979 11.1262 64.4429 7.90465 61.8667 6.5066C60.3014 5.65711 58.4986 5.67783 57.0106 6.40152C57.0796 6.4353 57.1484 6.46971 57.2166 6.5066C59.7928 7.90465 60.7478 11.1264 59.3497 13.7025L55.6258 20.5643L63.4237 20.9429C66.3512 21.0851 68.6093 23.5737 68.4671 26.5012C68.3509 28.8965 66.6633 30.8429 64.4502 31.3937L67.559 31.5448C70.4865 31.687 72.9751 29.4289 73.1173 26.5014C73.2594 23.5739 71.0015 21.0851 68.0738 20.9429Z" fill="#AC2538"/>
<path d="M70.6519 34.1078C70.6519 35.0735 70.3887 36.0496 69.8374 36.9263C68.3805 39.2453 65.4253 40.0494 63.0192 38.8744C62.8492 38.7915 62.6834 38.6982 62.5197 38.5967L58.4267 36.0248C58.207 35.8859 57.9666 35.8466 57.7428 35.8818C57.2827 35.9543 56.891 36.3439 56.891 36.8724V41.7074C56.891 43.1746 56.2962 44.501 55.3367 45.4605C54.3751 46.4201 53.0487 47.0149 51.5835 47.0149C50.7504 47.0149 49.9629 46.8221 49.2624 46.4781H49.2603C47.4925 45.618 46.276 43.8067 46.276 41.7074V36.8724C46.276 36.0849 45.4077 35.6041 44.7404 36.0248L40.6452 38.5967C39.7686 39.1479 38.7925 39.4111 37.8267 39.4111C36.2807 39.4111 34.7616 38.7334 33.7337 37.4858C33.5886 37.3097 33.4539 37.1232 33.3296 36.9263C31.769 34.4456 32.5172 31.1691 34.9979 29.6085L40.2577 26.3051C40.8836 25.9113 40.8836 24.9995 40.2577 24.6057L34.9979 21.3023C33.3938 20.293 32.5151 18.5667 32.5151 16.803C32.5151 15.8373 32.7783 14.8612 33.3296 13.9845C33.4539 13.7876 33.5886 13.6011 33.7337 13.425C35.4041 11.3981 38.3614 10.88 40.6452 12.3142L44.7404 14.886C45.4077 15.3067 46.276 14.8259 46.276 14.0384V9.20344C46.276 7.73616 46.8708 6.40981 47.8304 5.45028C48.2448 5.03579 48.7277 4.6897 49.2603 4.43272H49.2624C49.9629 4.08869 50.7504 3.89596 51.5835 3.89596C54.5139 3.89596 56.891 6.27096 56.891 9.20344V14.0384C56.891 14.5669 57.2827 14.9565 57.7428 15.029C57.9666 15.0643 58.207 15.0249 58.4267 14.886L62.5197 12.3142C62.6834 12.2105 62.8492 12.1214 63.0192 12.0385C63.0378 12.0302 63.0544 12.0199 63.073 12.0116C63.7984 11.6655 64.5735 11.4997 65.3403 11.4997C67.1039 11.4997 68.8302 12.3805 69.8374 13.9845C71.398 16.4652 70.6498 19.7417 68.1671 21.3023L62.9093 24.6057C62.2834 24.9995 62.2834 25.9113 62.9093 26.3051L68.1671 29.6085C69.7711 30.6178 70.6519 32.3442 70.6519 34.1078Z" fill="#FD4755"/>
<path d="M70.6519 34.1078C70.6519 35.0735 70.3887 36.0497 69.8375 36.9263C68.3805 39.2453 65.4253 40.0494 63.0192 38.8744C63.8813 38.4537 64.6398 37.7988 65.1869 36.9263C66.7475 34.4456 65.9993 31.1691 63.5186 29.6086L56.9076 25.4554L63.5186 21.3023C65.1227 20.293 66.0014 18.5667 66.0014 16.803C66.0014 15.8373 65.7382 14.8612 65.1869 13.9845C64.6398 13.112 63.8813 12.4572 63.0192 12.0385C63.0378 12.0302 63.0544 12.0199 63.073 12.0116C63.7984 11.6655 64.5735 11.4997 65.3403 11.4997C67.1039 11.4997 68.8303 12.3805 69.8375 13.9845C71.398 16.4652 70.6498 19.7417 68.1671 21.3023L62.9093 24.6057C62.2835 24.9995 62.2835 25.9113 62.9093 26.3051L68.1671 29.6086C69.7711 30.6178 70.6519 32.3442 70.6519 34.1078Z" fill="#FB2B3A"/>
<path d="M57.7428 35.8797V35.8818C57.2827 35.9543 56.891 36.3439 56.891 36.8724V41.7074C56.891 43.1747 56.2962 44.501 55.3367 45.4605C54.3751 46.4201 53.0487 47.0149 51.5835 47.0149C50.7504 47.0149 49.9629 46.8221 49.2624 46.4781C51.026 45.616 52.2405 43.8026 52.2405 41.7074V39.1355C52.2405 37.3283 53.7036 35.8652 55.5108 35.8652L57.7428 35.8797Z" fill="#FB2B3A"/>
<path d="M46.276 36.1678V36.8724C46.276 36.0849 45.4077 35.6041 44.7404 36.0248L40.6453 38.5967C39.7686 39.1479 38.7925 39.4111 37.8268 39.4111C36.2807 39.4111 34.7616 38.7334 33.7337 37.4858C35.2549 38.091 37.033 37.9874 38.5252 37.0506L40.8173 35.5771C41.3457 35.2393 41.9592 35.059 42.5851 35.059H45.1673C45.7807 35.059 46.276 35.5543 46.276 36.1678Z" fill="#FB2B3A"/>
<path d="M57.7428 15.029V15.0311L55.5108 15.0456C53.7036 15.0456 52.2405 13.5825 52.2405 11.7753V9.20344C52.2405 7.10822 51.026 5.29485 49.2624 4.43272C49.9629 4.08869 50.7504 3.89596 51.5835 3.89596C54.5139 3.89596 56.891 6.27096 56.891 9.20344V14.0384C56.891 14.5669 57.2827 14.9565 57.7428 15.029Z" fill="#FB2B3A"/>
<path d="M46.276 14.0384V14.743C46.276 15.3565 45.7807 15.8518 45.1673 15.8518H42.5851C41.9592 15.8518 41.3457 15.6715 40.8173 15.3337L38.5252 13.8602C37.033 12.9234 35.2549 12.8198 33.7337 13.425C35.4041 11.3981 38.3614 10.88 40.6453 12.3141L44.7404 14.886C45.4077 15.3067 46.276 14.8259 46.276 14.0384Z" fill="#FB2B3A"/>
<path d="M51.5868 29.0428H51.5792C49.6 29.0428 47.9955 27.4383 47.9955 25.4591V25.4515C47.9955 23.4723 49.6 21.8678 51.5792 21.8678H51.5868C53.566 21.8678 55.1705 23.4723 55.1705 25.4515V25.4591C55.1705 27.4385 53.566 29.0428 51.5868 29.0428Z" fill="#C57A44"/>
<path d="M82.438 99.1041H80.4798C79.553 99.1041 78.8015 98.3526 78.8015 97.4258V81.9821H84.1162V97.4258C84.1162 98.3526 83.365 99.1041 82.438 99.1041Z" fill="#B3E59F"/>
<path d="M84.1159 81.9813V97.425C84.1159 98.3534 83.3656 99.1037 82.4372 99.1037H80.4808C80.3606 99.1037 80.2425 99.0912 80.1306 99.0684C80.8891 98.9068 81.459 98.2332 81.459 97.425V81.9813H84.1159Z" fill="#95D6A4"/>
<path d="M22.5196 99.104H20.5614C19.6346 99.104 18.8831 98.3526 18.8831 97.4258V67.0438H24.1979V97.4258C24.1979 98.3526 23.4466 99.104 22.5196 99.104Z" fill="#B3E59F"/>
<path d="M24.1978 67.043V97.4248C24.1978 98.3532 23.4456 99.1034 22.5192 99.1034H20.5607C20.4405 99.1034 20.3245 99.091 20.2126 99.0682C20.9711 98.9066 21.541 98.233 21.541 97.4248V67.043H24.1978Z" fill="#95D6A4"/>
<path d="M38.0313 44.5708L30.2334 44.1922L33.9573 37.3304C35.3554 34.7542 34.4004 31.5324 31.8242 30.1345C29.2479 28.7365 26.0264 29.6914 24.6283 32.2677L21.4566 38.1117L18.1959 32.3168C16.7585 29.7623 13.5226 28.8569 10.9681 30.2941C8.41363 31.7315 7.50798 34.9674 8.94541 37.5219L12.2062 43.3168L5.56466 42.9943C2.63715 42.8522 0.148583 45.1103 0.00641456 48.0378C-0.135754 50.9653 2.12236 53.4539 5.04987 53.5961L12.8478 53.9747L9.12406 60.8365C7.726 63.4127 8.68097 66.6343 11.2572 68.0324C13.8334 69.4304 17.055 68.4754 18.4531 65.8992L21.6247 60.055L24.8855 65.8499C26.3229 68.4044 29.5588 69.3098 32.1133 67.8726C34.6677 66.4351 35.5734 63.1993 34.136 60.6448L30.8752 54.8499L37.5167 55.1723C40.4442 55.3145 42.9328 53.0564 43.075 50.1289C43.2169 47.2016 40.959 44.713 38.0313 44.5708Z" fill="#FEA95C"/>
<path d="M13.5456 32.3168L16.8063 38.1117L19.0893 33.9049L18.1957 32.317C16.8099 29.8541 13.7524 28.9249 11.2454 30.1497C12.1828 30.6052 12.996 31.3399 13.5456 32.3168Z" fill="#FE9738"/>
<path d="M16.9744 60.0554L13.8028 65.8996C13.2542 66.9106 12.424 67.6705 11.463 68.1379C14.0025 69.3782 17.0919 68.4077 18.4531 65.8996L19.3415 64.2624L16.9744 60.0554Z" fill="#FE9738"/>
<path d="M31.0058 55.0824L26.2249 54.8503L29.4857 60.6452C30.9231 63.1997 30.0174 66.4356 27.463 67.873C27.3714 67.9246 27.2787 67.9723 27.1855 68.0177C28.6988 68.7536 30.5358 68.7606 32.1131 67.873C34.6676 66.4356 35.5732 63.1997 34.1358 60.6452L31.0058 55.0824Z" fill="#FE9738"/>
<path d="M38.0313 44.5708L30.2334 44.1922L33.9573 37.3304C35.3554 34.7542 34.4004 31.5326 31.8242 30.1345C30.2589 29.285 28.4561 29.3058 26.9681 30.0295C27.0371 30.0632 27.1059 30.0976 27.1741 30.1345C29.7503 31.5326 30.7053 34.7544 29.3072 37.3304L25.5835 44.1922L33.3814 44.5708C36.3089 44.713 38.567 47.2016 38.4248 50.1291C38.3086 52.5244 36.621 54.4708 34.4079 55.0217L37.5167 55.1727C40.4442 55.3149 42.9328 53.0568 43.075 50.1293C43.2169 47.2016 40.959 44.713 38.0313 44.5708Z" fill="#FE9738"/>
<path d="M40.6094 57.736C40.6094 58.7017 40.3462 59.6778 39.7949 60.5545C38.338 62.8735 35.3827 63.6776 32.9766 62.5025C32.8067 62.4196 32.6409 62.3264 32.4772 62.2248L28.3841 59.653C28.1645 59.5141 27.9241 59.4747 27.7002 59.51C27.2402 59.5825 26.8485 59.9721 26.8485 60.5006V65.3355C26.8485 66.8028 26.2537 68.1292 25.2942 69.0887C24.3326 70.0482 23.0062 70.643 21.541 70.643C20.7079 70.643 19.9204 70.4503 19.2199 70.1063H19.2178C17.45 69.2462 16.2335 67.4349 16.2335 65.3355V60.5006C16.2335 59.7131 15.3652 59.2323 14.6978 59.653L10.6027 62.2248C9.72609 62.7761 8.74998 63.0393 7.78423 63.0393C6.2382 63.0393 4.71911 62.3616 3.69119 61.114C3.54612 60.9379 3.41141 60.7513 3.28707 60.5545C1.72653 58.0738 2.47467 54.7973 4.95537 53.2367L10.2152 49.9333C10.8411 49.5395 10.8411 48.6276 10.2152 48.2339L4.95537 44.9304C3.35131 43.9212 2.4726 42.1948 2.4726 40.4312C2.4726 39.4654 2.7358 38.4893 3.28707 37.6127C3.41141 37.4158 3.54612 37.2293 3.69119 37.0531C5.36156 35.0263 8.31892 34.5082 10.6027 35.9423L14.6978 38.5142C15.3652 38.9349 16.2335 38.4541 16.2335 37.6666V32.8316C16.2335 31.3643 16.8283 30.038 17.7878 29.0784C18.2023 28.6639 18.6852 28.3178 19.2178 28.0609H19.2199C19.9204 27.7168 20.7079 27.5241 21.541 27.5241C24.4714 27.5241 26.8485 29.8991 26.8485 32.8316V37.6666C26.8485 38.195 27.2402 38.5847 27.7002 38.6572C27.9241 38.6924 28.1645 38.653 28.3841 38.5142L32.4772 35.9423C32.6409 35.8387 32.8067 35.7496 32.9766 35.6667C32.9953 35.6584 33.0119 35.648 33.0305 35.6397C33.7559 35.2936 34.531 35.1278 35.2978 35.1278C37.0614 35.1278 38.7877 36.0086 39.7949 37.6127C41.3555 40.0934 40.6073 43.3699 38.1246 44.9304L32.8668 48.2339C32.2409 48.6276 32.2409 49.5395 32.8668 49.9333L38.1246 53.2367C39.7286 54.2458 40.6094 55.9723 40.6094 57.736Z" fill="#FFE07D"/>
<path d="M40.6094 57.7359C40.6094 58.7017 40.3462 59.6778 39.7949 60.5544C38.338 62.8735 35.3827 63.6776 32.9767 62.5025C33.8388 62.0818 34.5973 61.4269 35.1444 60.5544C36.7049 58.0737 35.9568 54.7972 33.4761 53.2367L26.8651 49.0836L33.4761 44.9304C35.0802 43.9211 35.9589 42.1948 35.9589 40.4312C35.9589 39.4654 35.6957 38.4893 35.1444 37.6127C34.5973 36.7402 33.8388 36.0853 32.9767 35.6667C32.9953 35.6584 33.0119 35.648 33.0305 35.6397C33.7559 35.2936 34.531 35.1278 35.2978 35.1278C37.0614 35.1278 38.7877 36.0086 39.7949 37.6127C41.3555 40.0934 40.6073 43.3699 38.1246 44.9304L32.8668 48.2339C32.2409 48.6276 32.2409 49.5395 32.8668 49.9332L38.1246 53.2367C39.7286 54.2458 40.6094 55.9723 40.6094 57.7359Z" fill="#FFD064"/>
<path d="M27.7002 59.5077V59.5097C27.2402 59.5823 26.8485 59.9719 26.8485 60.5003V65.3353C26.8485 66.8026 26.2537 68.129 25.2942 69.0885C24.3326 70.048 23.0062 70.6428 21.541 70.6428C20.7079 70.6428 19.9204 70.4501 19.2199 70.1061C20.9835 69.2439 22.198 67.4306 22.198 65.3353V62.7634C22.198 60.9563 23.6611 59.4931 25.4682 59.4931L27.7002 59.5077Z" fill="#FFD064"/>
<path d="M16.2335 59.7957V60.5004C16.2335 59.7128 15.3652 59.232 14.6978 59.6527L10.6027 62.2246C9.7261 62.7759 8.74999 63.0391 7.78424 63.0391C6.2382 63.0391 4.71912 62.3614 3.69119 61.1138C5.21235 61.719 6.9905 61.6153 8.48264 60.6786L10.7747 59.2051C11.3032 58.8673 11.9167 58.687 12.5425 58.687H15.1248C15.7382 58.687 16.2335 59.1825 16.2335 59.7957Z" fill="#FFD064"/>
<path d="M27.7002 38.657V38.659L25.4682 38.6736C23.6611 38.6736 22.198 37.2104 22.198 35.4033V32.8314C22.198 30.7362 20.9835 28.9228 19.2199 28.0607C19.9204 27.7166 20.7079 27.5239 21.541 27.5239C24.4714 27.5239 26.8485 29.8989 26.8485 32.8314V37.6664C26.8485 38.1948 27.2402 38.5844 27.7002 38.657Z" fill="#FFD064"/>
<path d="M16.2335 37.6664V38.371C16.2335 38.9844 15.7382 39.4797 15.1248 39.4797H12.5425C11.9167 39.4797 11.3032 39.2994 10.7747 38.9616L8.48264 37.4881C6.9905 36.5514 5.21235 36.4478 3.69119 37.0529C5.36157 35.0261 8.31892 34.508 10.6027 35.9421L14.6978 38.514C15.3652 38.9347 16.2335 38.4539 16.2335 37.6664Z" fill="#FFD064"/>
<path d="M21.5443 52.6709H21.5366C19.5575 52.6709 17.953 51.0664 17.953 49.0873V49.0796C17.953 47.1004 19.5575 45.496 21.5366 45.496H21.5443C23.5235 45.496 25.128 47.1004 25.128 49.0796V49.0873C25.128 51.0664 23.5235 52.6709 21.5443 52.6709Z" fill="#C57A44"/>
<path d="M97.9501 59.5093L90.1522 59.1307L93.8761 52.2689C95.2742 49.6926 94.3192 46.4709 91.743 45.073C89.1668 43.6749 85.9452 44.6299 84.5471 47.2061L81.3755 53.0502L78.1147 47.2553C76.6773 44.7008 73.4414 43.7953 70.8869 45.2326C68.3324 46.67 67.4268 49.9059 68.8642 52.4604L72.125 58.2553L65.4835 57.9328C62.556 57.7906 60.0674 60.0488 59.9252 62.9763C59.7831 65.9038 62.0412 68.3924 64.9687 68.5345L72.7666 68.9132L69.0429 75.775C67.6448 78.3512 68.5998 81.5728 71.176 82.9708C73.7523 84.3689 76.9738 83.4139 78.3719 80.8377L81.5435 74.9935L84.8043 80.7884C86.2417 83.3428 89.4776 84.2483 92.0321 82.8111C94.5866 81.3736 95.492 78.1377 94.0548 75.5833L90.794 69.7883L97.4355 70.1108C100.363 70.253 102.852 67.9949 102.994 65.0674C103.136 62.1401 100.878 59.6515 97.9501 59.5093Z" fill="#FEA95C"/>
<path d="M73.4644 47.2553L76.7252 53.0502L79.0081 48.8434L78.1145 47.2555C76.7287 44.7926 73.6712 43.8633 71.1642 45.0881C72.1016 45.5436 72.9148 46.2783 73.4644 47.2553Z" fill="#FE9738"/>
<path d="M76.8932 74.9939L73.7216 80.8381C73.173 81.849 72.3428 82.609 71.3818 83.0763C73.9214 84.3167 77.0107 83.3461 78.3719 80.8381L79.2604 79.2009L76.8932 74.9939Z" fill="#FE9738"/>
<path d="M90.9244 70.0209L86.1435 69.7888L89.4043 75.5837C90.8417 78.1381 89.9361 81.374 87.3816 82.8115C87.29 82.8631 87.1973 82.9107 87.1041 82.9561C88.6174 83.692 90.4544 83.6991 92.0317 82.8115C94.5862 81.374 95.4918 78.1381 94.0544 75.5837L90.9244 70.0209Z" fill="#FE9738"/>
<path d="M97.9501 59.5093L90.1522 59.1307L93.8762 52.2689C95.2742 49.6926 94.3192 46.4711 91.743 45.073C90.1777 44.2235 88.3749 44.2442 86.8869 44.9679C86.9559 45.0017 87.0247 45.0361 87.0929 45.073C89.6691 46.4711 90.6241 49.6929 89.226 52.2689L85.5021 59.1307L93.3 59.5093C96.2275 59.6515 98.4856 62.1401 98.3435 65.0676C98.2272 67.4629 96.5396 69.4093 94.3265 69.9601L97.4353 70.1112C100.363 70.2534 102.851 67.9953 102.994 65.0678C103.136 62.1403 100.878 59.6515 97.9501 59.5093Z" fill="#FE9738"/>
<path d="M100.528 72.6744C100.528 73.6402 100.265 74.6163 99.7135 75.4929C98.2566 77.8119 95.3013 78.616 92.8953 77.441C92.7253 77.3581 92.5595 77.2648 92.3958 77.1633L88.3028 74.5914C88.0831 74.4525 87.8427 74.4132 87.6189 74.4484C87.1588 74.5209 86.7671 74.9105 86.7671 75.439V80.274C86.7671 81.7413 86.1723 83.0676 85.2128 84.0271C84.2512 84.9867 82.9248 85.5815 81.4596 85.5815C80.6265 85.5815 79.839 85.3887 79.1385 85.0447H79.1364C77.3686 84.1847 76.1521 82.3734 76.1521 80.274V75.439C76.1521 74.6515 75.2838 74.1707 74.6165 74.5914L70.5213 77.1633C69.6447 77.7145 68.6686 77.9777 67.7028 77.9777C66.1568 77.9777 64.6377 77.3001 63.6098 76.0525C63.4647 75.8763 63.33 75.6898 63.2057 75.4929C61.6451 73.0122 62.3933 69.7357 64.874 68.1752L70.1338 64.8717C70.7597 64.478 70.7597 63.5661 70.1338 63.1723L64.874 59.8689C63.2699 58.8596 62.3912 57.1333 62.3912 55.3696C62.3912 54.4039 62.6544 53.4278 63.2057 52.5511C63.33 52.3543 63.4647 52.1677 63.6098 51.9916C65.2802 49.9648 68.2375 49.4466 70.5213 50.8808L74.6165 53.4526C75.2838 53.8733 76.1521 53.3925 76.1521 52.605V47.7701C76.1521 46.3028 76.7469 44.9764 77.7065 44.0169C78.1209 43.6024 78.6038 43.2563 79.1364 42.9993H79.1385C79.839 42.6553 80.6265 42.4626 81.4596 42.4626C84.39 42.4626 86.7671 44.8376 86.7671 47.7701V52.605C86.7671 53.1335 87.1588 53.5231 87.6189 53.5956C87.8427 53.6309 88.0831 53.5915 88.3028 53.4526L92.3958 50.8808C92.5595 50.7771 92.7253 50.688 92.8953 50.6051C92.9139 50.5968 92.9305 50.5865 92.9491 50.5782C93.6745 50.2321 94.4496 50.0663 95.2164 50.0663C96.98 50.0663 98.7063 50.9471 99.7135 52.5511C101.274 55.0318 100.526 58.3083 98.0432 59.8689L92.7854 63.1723C92.1595 63.5661 92.1595 64.478 92.7854 64.8717L98.0432 68.1752C99.6472 69.1844 100.528 70.9108 100.528 72.6744Z" fill="#FFE07D"/>
<path d="M100.528 72.6744C100.528 73.6402 100.265 74.6163 99.7136 75.4929C98.2566 77.812 95.3014 78.6161 92.8953 77.441C93.7574 77.0203 94.5159 76.3654 95.063 75.4929C96.6236 73.0122 95.8754 69.7357 93.3947 68.1752L86.7837 64.022L93.3947 59.8689C94.9988 58.8596 95.8775 57.1333 95.8775 55.3696C95.8775 54.4039 95.6143 53.4278 95.063 52.5511C94.5159 51.6786 93.7574 51.0238 92.8953 50.6051C92.9139 50.5968 92.9305 50.5865 92.9492 50.5782C93.6745 50.2321 94.4496 50.0663 95.2164 50.0663C96.98 50.0663 98.7064 50.9471 99.7136 52.5511C101.274 55.0318 100.526 58.3083 98.0432 59.8689L92.7854 63.1723C92.1596 63.5661 92.1596 64.478 92.7854 64.8717L98.0432 68.1752C99.6472 69.1844 100.528 70.9108 100.528 72.6744Z" fill="#FFD064"/>
<path d="M87.6189 74.4463V74.4484C87.1588 74.5209 86.7671 74.9106 86.7671 75.439V80.274C86.7671 81.7413 86.1723 83.0676 85.2128 84.0272C84.2512 84.9867 82.9248 85.5815 81.4596 85.5815C80.6265 85.5815 79.839 85.3887 79.1385 85.0447C80.9022 84.1826 82.1166 82.3692 82.1166 80.274V77.7021C82.1166 75.895 83.5797 74.4318 85.3869 74.4318L87.6189 74.4463Z" fill="#FFD064"/>
<path d="M76.1521 74.7344V75.439C76.1521 74.6515 75.2838 74.1707 74.6165 74.5914L70.5213 77.1633C69.6447 77.7145 68.6686 77.9777 67.7028 77.9777C66.1568 77.9777 64.6377 77.3001 63.6098 76.0525C65.131 76.6576 66.9091 76.554 68.4013 75.6172L70.6934 74.1437C71.2218 73.8059 71.8353 73.6256 72.4611 73.6256H75.0434C75.6568 73.6256 76.1521 74.121 76.1521 74.7344Z" fill="#FFD064"/>
<path d="M87.6189 53.5956V53.5977L85.3869 53.6122C83.5797 53.6122 82.1166 52.1491 82.1166 50.3419V47.7701C82.1166 45.6748 80.9022 43.8615 79.1385 42.9993C79.839 42.6553 80.6265 42.4626 81.4596 42.4626C84.39 42.4626 86.7671 44.8376 86.7671 47.7701V52.605C86.7671 53.1335 87.1588 53.5231 87.6189 53.5956Z" fill="#FFD064"/>
<path d="M76.1521 52.605V53.3097C76.1521 53.9231 75.6568 54.4184 75.0434 54.4184H72.4611C71.8353 54.4184 71.2218 54.2381 70.6934 53.9003L68.4013 52.4268C66.9091 51.4901 65.131 51.3864 63.6098 51.9916C65.2802 49.9648 68.2375 49.4467 70.5213 50.8808L74.6165 53.4526C75.2838 53.8734 76.1521 53.3925 76.1521 52.605Z" fill="#FFD064"/>
<path d="M81.4631 67.6094H81.4555C79.4763 67.6094 77.8718 66.0049 77.8718 64.0258V64.0181C77.8718 62.0389 79.4763 60.4344 81.4555 60.4344H81.4631C83.4423 60.4344 85.0468 62.0389 85.0468 64.0181V64.0258C85.0468 66.0049 83.4423 67.6094 81.4631 67.6094Z" fill="#C57A44"/>
</g>
<defs>
<clipPath id="clip0">
<rect width="103" height="103" fill="white"/>
</clipPath>
</defs>
</svg>
