<svg width="103" height="103" viewBox="0 0 103 103" fill="none" xmlns="http://www.w3.org/2000/svg">
<path d="M31.3765 37.6334H39.0722C41.9469 32.3594 46.86 28.3605 52.7567 26.6982C51.5704 23.8178 48.7375 21.7902 45.4302 21.7902C44.6034 21.7902 43.807 21.9175 43.0584 22.1519C43.0624 22.0316 43.0677 21.9115 43.0677 21.7902C43.0677 15.9071 38.2971 11.1369 32.4136 11.1369C27.3394 11.1369 23.0974 14.684 22.0246 19.4331C21.3873 19.2206 20.7073 19.1043 19.999 19.1043C17.8195 19.1043 15.8955 20.1955 14.7417 21.861C14.098 21.695 13.422 21.6051 12.7262 21.6051C8.30039 21.6051 4.71268 25.193 4.71268 29.619C4.71268 34.0442 8.30059 37.6329 12.7262 37.6329H25.5383" fill="#9FDEF7"/>
<path d="M75.1452 32.7827C71.0276 28.3784 65.1657 25.6254 58.6609 25.6254C47.9167 25.6254 38.9327 33.1382 36.6603 43.1958C35.3116 42.746 33.871 42.4985 32.3717 42.4985C27.7554 42.4985 23.6818 44.81 21.2386 48.337C19.8749 47.9847 18.4447 47.7954 16.9705 47.7954C7.59789 47.7954 0 55.3933 0 64.7659C0 74.1382 7.59789 81.7371 16.9705 81.7371H35.6818C35.7212 75.9684 40.4071 71.3046 46.1842 71.3046C47.2798 71.3046 48.3362 71.4726 49.3291 71.7838C49.3245 71.6249 49.3173 71.4656 49.3173 71.3046C49.3173 63.5018 55.6426 57.1763 63.4452 57.1763C70.173 57.1763 75.7992 61.8811 77.2221 68.1786C78.0665 67.8968 78.9679 67.7421 79.907 67.7421C82.7974 67.7421 85.3489 69.1893 86.8786 71.3984C87.7326 71.1775 88.628 71.0588 89.551 71.0588C93.4198 71.0588 96.8047 73.1267 98.6631 76.2163C101.358 73.2403 103 69.2931 103 64.9627C103 55.6975 95.4896 48.1881 86.2252 48.1881C84.4758 48.1881 82.7892 48.4563 81.2033 48.9531C81.2116 48.6991 81.2227 48.4444 81.2227 48.1881C81.2227 44.3996 80.289 40.8294 78.6386 37.6943" fill="#BEEAFC"/>
<path d="M17.9933 47.8268C17.6549 47.8063 17.3141 47.7952 16.9705 47.7952C7.59789 47.795 0 55.3931 0 64.7657C0 74.138 7.59789 81.7368 16.9705 81.7368H35.6818C35.6941 79.9267 36.1646 78.2256 36.9822 76.7431C27.7304 69.623 20.9141 59.4978 17.9933 47.8268Z" fill="#AEE4FF"/>
<path d="M16.4185 35.0093C16.4185 29.5048 17.265 24.1986 18.8324 19.2116C17.1421 19.5236 15.6848 20.5005 14.7419 21.8612C14.0982 21.6953 13.4222 21.6053 12.7264 21.6053C8.30059 21.6053 4.71288 25.1932 4.71288 29.6192C4.71288 34.0444 8.30079 37.6332 12.7264 37.6332H16.4839C16.4412 36.7637 16.4185 35.8892 16.4185 35.0093Z" fill="#83D4ED"/>
<path d="M89.5512 70.6098C88.6282 70.6098 87.7324 70.7281 86.8788 70.9494C85.3491 68.7401 82.7976 67.2931 79.9072 67.2931C78.9681 67.2931 78.0667 67.4478 77.2223 67.7296C75.7992 61.4319 70.1732 56.7273 63.4454 56.7273C55.6427 56.7273 49.3175 63.0527 49.3175 70.8556C49.3175 71.0166 49.3245 71.1759 49.3293 71.3348C48.3364 71.0236 47.28 70.8556 46.1844 70.8556C40.3836 70.8556 35.6808 75.5576 35.6808 81.3601C35.6808 87.1609 40.3838 91.8633 46.1844 91.8633H77.6335H83.4702H89.5516C95.4208 91.8633 100.179 87.1053 100.179 81.2365C100.179 75.3673 95.4204 70.6098 89.5512 70.6098Z" fill="#E4F2F9"/>
<path d="M57.3861 67.9008C57.3861 64.1093 58.1908 60.5061 59.6362 57.2505C53.6845 58.9136 49.3171 64.3726 49.3171 70.8552C49.3171 71.0162 49.3241 71.1755 49.3289 71.3344C48.336 71.0232 47.2796 70.8552 46.184 70.8552C40.3832 70.8552 35.6804 75.5572 35.6804 81.3597C35.6804 87.1605 40.3834 91.8629 46.184 91.8629H72.875C63.7436 87.7483 57.3861 78.567 57.3861 67.9008Z" fill="#D7EDF9"/>
</svg>
