<svg width="207" height="207" viewBox="0 0 207 207" fill="none" xmlns="http://www.w3.org/2000/svg">
<g clip-path="url(#clip0)">
<path d="M179.457 110.366C181.171 86.3736 159.081 67.8794 135.891 73.5084C131.19 52.3261 112.295 36.4854 89.6973 36.4854C62.9163 36.4854 41.3208 58.7395 42.42 85.7627C42.4055 85.7627 42.3913 85.7619 42.3768 85.7619C18.9724 85.7619 0 104.734 0 128.138C0 150.992 18.0915 169.616 40.7333 170.48V170.515H176.866C193.509 170.515 207 157.023 207 140.381C207 124.612 194.886 111.681 179.457 110.366Z" fill="#D8ECFE"/>
<path d="M179.457 110.366C181.171 86.3732 159.081 67.8794 135.891 73.5084C131.19 52.3261 112.295 36.4854 89.6973 36.4854C82.2194 36.4854 75.1467 38.2218 68.8586 41.311C70.4354 41.1521 72.0344 41.0693 73.6528 41.0693C96.2506 41.0693 115.145 56.91 119.847 78.0924C143.036 72.4629 165.126 90.9571 163.413 114.95C178.841 116.265 190.955 129.196 190.955 144.965C190.955 155.74 185.297 165.188 176.793 170.515H176.867C193.509 170.515 207 157.023 207 140.381C207 124.612 194.886 111.681 179.457 110.366Z" fill="#C4E2FF"/>
</g>
<defs>
<clipPath id="clip0">
<rect width="207" height="207" fill="white"/>
</clipPath>
</defs>
</svg>
