<svg width="107" height="107" viewBox="0 0 107 107" fill="none" xmlns="http://www.w3.org/2000/svg">
<g clip-path="url(#clip0)">
<path d="M95.1244 49.2549C89.2512 52.4417 81.1486 54.1664 79.7671 51.6203C78.3855 49.0741 84.2483 43.2213 90.1215 40.0346C95.9947 36.8478 99.6542 37.5338 101.036 40.08C102.417 42.626 100.998 46.0681 95.1244 49.2549Z" fill="#89D47F"/>
<path d="M85.4912 34.1438C83.5916 40.55 79.0817 47.4991 76.3044 46.6756C73.5272 45.8521 73.5341 37.568 75.4337 31.1616C77.3333 24.7551 80.4062 22.6525 83.1835 23.476C85.9609 24.2998 87.3908 27.7375 85.4912 34.1438Z" fill="#89D47F"/>
<path d="M69.5096 61.5868C70.4052 57.033 71.5996 52.1672 74.2513 47.4388C77.5946 41.477 82.5635 37.1777 89.0197 34.6595C90.8135 33.9596 92.835 34.8469 93.5347 36.6407C94.2344 38.4346 93.3474 40.456 91.5535 41.1557C81.1595 45.2095 78.1045 54.0178 76.3513 62.9325C75.9798 64.8217 74.147 66.0521 72.2576 65.6806C70.3777 65.311 69.1363 63.4849 69.5096 61.5868Z" fill="#B0DA87"/>
<path d="M24.2818 58.0583C18.0668 57.1924 6.77669 59.9944 4.91834 66.2617C4.06389 69.1433 5.44042 72.0255 11.798 75.1976C17.0564 77.8959 23.911 82.3705 30.1702 70.7333L24.2818 58.0583Z" fill="#F8C7A5"/>
<path d="M21.2338 82.2896C19.9358 81.0203 19.9127 78.9391 21.182 77.6413C24.6438 74.1016 26.8084 69.9266 27.1068 68.8179C27.282 67.1074 28.7592 65.8048 30.5017 65.8711C32.3163 65.9406 33.7305 67.4669 33.6616 69.2809C33.5559 72.0538 29.9208 78.1086 25.8822 82.2381C24.6093 83.5394 22.5279 83.5554 21.2338 82.2896ZM27.0922 69.0273C27.0922 69.0286 27.0921 69.0296 27.0921 69.0308C27.0921 69.0296 27.0921 69.0285 27.0922 69.0273Z" fill="#E1B89A"/>
<path d="M38.0799 87.4128C36.6764 86.2613 36.472 84.19 37.6235 82.7865C40.3965 79.4064 41.2159 73.9357 41.2438 73.227C41.315 71.4136 42.8421 69.9992 44.6555 70.0691C46.4692 70.1395 47.8824 71.6637 47.8136 73.4769C47.7524 75.0835 46.7065 82.0804 42.7063 86.9562C41.5583 88.3556 39.4872 88.5675 38.0799 87.4128Z" fill="#E1B89A"/>
<path d="M44.6555 70.0692C42.8421 69.9992 41.3151 71.4137 41.244 73.2271C41.2212 73.8074 40.6666 77.5814 38.9437 80.7856C41.4342 81.0948 43.798 81.1818 46.0335 81.0507C47.3452 77.6391 47.7752 74.489 47.8137 73.4771C47.8824 71.6637 46.4691 70.1397 44.6555 70.0692Z" fill="#DA9B85"/>
<path d="M28.9984 78.5802C31.6234 75.0821 33.5845 71.3061 33.6616 69.2808C33.7305 67.4667 32.3163 65.9405 30.5018 65.8709C28.7593 65.8047 27.282 67.1074 27.1068 68.8179C26.8553 69.7525 25.2777 72.8657 22.7148 75.9407C24.5788 76.9675 26.6769 77.848 28.9984 78.5802Z" fill="#DA9B85"/>
<path d="M61.7318 24.9615C48.3798 21.0024 35.6697 32.0366 37.7683 45.3636C37.6061 45.3576 37.4448 45.3533 37.2838 45.3503C21.926 50.7725 25.1896 74.024 48.4978 75.5547C57.3689 74.0449 61.6105 68.0784 63.3805 62.2539C63.8207 60.8055 64.7962 59.5763 66.1106 58.8252C70.0955 56.548 73.2257 52.8264 74.6194 48.1261C77.5311 38.3066 71.7611 27.9353 61.7318 24.9615Z" fill="#FBF1CF"/>
<path d="M48.4981 75.5548C29.301 70.6774 34.4196 48.2895 37.2839 45.3503C18.1506 45.0012 7.41587 66.7766 31.1803 73.8232C38.3282 75.9427 44.006 76.3194 48.4981 75.5548Z" fill="#FAE0BD"/>
<path d="M39.645 40.352C35.9044 33.458 41.341 28.8365 37.8803 24.6459C34.4441 20.4851 27.8731 22.466 28.3764 30.8313C28.403 31.2738 27.8252 31.4623 27.589 31.0873C25.8182 28.2753 22.7403 23.7944 18.524 25.6247C13.8302 27.6624 16.1007 34.0722 19.4593 37.019C19.766 37.2882 19.5628 37.7943 19.1556 37.7678C16.5586 37.5985 13.3445 38.2554 12.4335 41.3277C10.7813 46.8996 22.206 52.4273 29.9504 54.7236C32.0915 55.2618 34.3544 55.0564 36.3555 53.9705C40.9117 51.4982 42.3845 45.4011 39.645 40.352Z" fill="#F8C7A5"/>
<path d="M69.6738 53.7868C67.5311 52.4232 66.6877 49.7226 67.7293 47.4063C69.2926 43.93 72.1807 42.4615 74.5392 42.5377C77.6489 42.6382 80.1122 47.1575 81.2201 50.8832C81.9437 53.3167 80.2096 55.7887 77.6758 55.9446C75.1114 56.1024 72.202 55.3958 69.6738 53.7868Z" fill="#F6CA8E"/>
<path d="M57.6745 47.1399C60.3242 47.9256 62.9794 46.8519 63.605 44.7419C64.2307 42.6318 62.5899 40.2843 59.9403 39.4986C57.2906 38.7129 54.6354 39.7866 54.0097 41.8967C53.384 44.0068 55.0248 46.3542 57.6745 47.1399Z" fill="#EDA1AB"/>
<path d="M64.7618 41.8758C64.0948 41.678 63.7143 40.977 63.9121 40.3098C64.0881 39.7166 63.7485 39.0908 63.1553 38.9149C62.562 38.739 61.9363 39.0785 61.7604 39.6718C61.5625 40.339 60.8615 40.7192 60.1944 40.5215C59.5274 40.3237 59.1469 39.6227 59.3448 38.9555C59.9156 37.0303 61.9463 35.9285 63.8715 36.4993C65.7967 37.0702 66.8986 39.1009 66.3277 41.0261C66.1299 41.6933 65.4288 42.0735 64.7618 41.8758Z" fill="#565E75"/>
</g>
<defs>
<clipPath id="clip0">
<rect width="86" height="86" fill="white" transform="translate(24.4483) rotate(16.516)"/>
</clipPath>
</defs>
</svg>
