<svg width="62" height="66" viewBox="0 0 62 66" fill="none" xmlns="http://www.w3.org/2000/svg">
<path fill-rule="evenodd" clip-rule="evenodd" d="M23.6193 59.0789C21.3042 60.9974 17.8749 61.6199 14.6351 60.4185C11.6174 59.3008 9.50598 56.8728 8.82522 54.1463C8.65776 53.48 8.62501 53.5675 9.18557 53.1706C11.4789 51.547 14.6643 51.0847 17.682 52.2023C20.9219 53.4037 23.117 56.1121 23.6193 59.0789Z" fill="#B3E59F"/>
<path fill-rule="evenodd" clip-rule="evenodd" d="M38.3807 59.0789C40.6959 60.9974 44.125 61.6199 47.365 60.4185C50.3827 59.3008 52.4941 56.8728 53.1749 54.1463C53.3423 53.48 53.3751 53.5675 52.8145 53.1706C50.5212 51.547 47.3358 51.0847 44.318 52.2023C41.0781 53.4037 38.883 56.1121 38.3807 59.0789Z" fill="#B3E59F"/>
<path fill-rule="evenodd" clip-rule="evenodd" d="M19.3566 47.732C21.3078 47.9249 23.3863 47.0076 24.6968 45.1728C25.9163 43.4656 26.1711 41.3832 25.5414 39.6614C25.3886 39.2427 25.4359 39.2755 24.9881 39.2681C23.1571 39.2281 21.2677 40.1418 20.0482 41.8491C18.7377 43.684 18.5448 45.9482 19.3566 47.732Z" fill="#B3E59F"/>
<path fill-rule="evenodd" clip-rule="evenodd" d="M42.6434 47.732C40.6923 47.9249 38.6137 47.0076 37.3032 45.1728C36.0837 43.4656 35.8289 41.3832 36.4585 39.6614C36.6115 39.2427 36.5641 39.2755 37.0119 39.2681C38.8431 39.2281 40.7323 40.1418 41.9518 41.8491C43.2623 43.684 43.4552 45.9482 42.6434 47.732Z" fill="#B3E59F"/>
<path d="M13.9034 42.712C13.5393 42.3262 13.554 41.7183 13.9361 41.3542C14.3221 40.9901 14.93 41.0048 15.2975 41.387C18.4427 44.6851 20.889 47.7139 22.5636 51.4707C24.2382 55.2311 25.1155 58.7076 25.1155 64.7907C25.1155 65.3221 24.6822 65.7517 24.1508 65.7517C23.6194 65.7517 23.1898 65.3221 23.1898 64.7907C23.1898 58.988 22.3707 55.759 20.809 52.2534C19.2473 48.7441 16.9139 45.8645 13.9034 42.712Z" fill="#66B394"/>
<path fill-rule="evenodd" clip-rule="evenodd" d="M3.54675 32.2643C4.91187 30.8045 7.89329 32.1296 9.21834 33.0215C10.3577 33.7896 10.3323 33.5203 10.4342 32.2825C10.5616 30.7136 11.3734 27.6739 13.3173 27.4991C15.1957 27.3862 16.9103 30.4696 17.1468 34.383C17.5109 40.3568 13.2735 45.1438 7.29986 45.5079C3.38288 45.7482 0.117517 44.4194 0.00103907 42.541C-0.0644558 40.5425 2.98247 39.3738 4.55139 39.0681C5.88735 38.806 5.66904 38.6093 4.88272 37.6847C3.86716 36.4871 2.29451 33.7568 3.54675 32.2643Z" fill="#62D9FA"/>
<path fill-rule="evenodd" clip-rule="evenodd" d="M11.8502 28.3327C12.2798 27.8303 12.7748 27.5355 13.3173 27.4991C15.1957 27.3862 16.9103 30.4696 17.1468 34.383C17.5109 40.3568 13.2735 45.1438 7.29987 45.5079C6.4189 45.5625 5.57427 45.537 4.79167 45.4424C10.3905 44.7616 14.2855 40.1202 13.936 34.383C13.776 31.7474 12.9496 29.4903 11.8502 28.3327Z" fill="#54D0F2"/>
<path d="M46.7023 41.387C47.07 41.0048 47.6779 40.9901 48.0601 41.3542C48.446 41.7183 48.4605 42.3261 48.0966 42.712C45.086 45.8645 42.7526 48.7441 41.191 52.2533C39.6292 55.7588 38.8102 58.9879 38.8102 64.7906C38.8102 65.322 38.3806 65.7515 37.8492 65.7515C37.3178 65.7515 36.8845 65.322 36.8845 64.7906C36.8845 58.7075 37.7619 55.231 39.4364 51.4706C41.1108 47.7139 43.5571 44.6851 46.7023 41.387Z" fill="#66B394"/>
<path fill-rule="evenodd" clip-rule="evenodd" d="M58.4533 32.2643C57.1136 30.8301 54.2196 32.0786 52.9055 32.9523C51.6459 33.7858 51.6678 33.5201 51.5477 32.1441C51.4094 30.597 50.583 27.6702 48.6827 27.4991C46.8043 27.3862 45.0898 30.4696 44.8532 34.383C44.4891 40.3568 48.7265 45.1438 54.7002 45.5079C58.6171 45.7482 61.8824 44.4194 61.999 42.541C62.0609 40.6625 59.3525 39.505 57.8564 39.1809C57.4851 39.0972 56.3748 38.9917 56.5677 38.4311C56.6769 38.118 57.3903 37.3499 57.6415 36.9894C58.4533 35.8136 59.5563 33.5784 58.4533 32.2643Z" fill="#62D9FA"/>
<path d="M30.0662 30.648C30.0662 30.1166 30.4958 29.6833 31.0272 29.6833C31.5623 29.6833 31.9919 30.1166 31.9919 30.648L31.9628 64.7907C31.9628 65.3221 31.5332 65.7517 30.9981 65.7517C30.4665 65.7517 30.0371 65.3221 30.0371 64.7907L30.0662 30.648Z" fill="#66B394"/>
<path fill-rule="evenodd" clip-rule="evenodd" d="M31.0272 0C32.9566 0.0583032 34.0706 3.23634 34.4855 4.72513C34.9478 6.39242 35.523 5.91919 36.7607 5.22751C38.0239 4.52492 40.8196 3.38184 42.0901 4.58323C43.3824 5.95194 42.0173 8.90062 41.2638 10.2221C40.4374 11.6745 40.736 11.8711 42.2649 12.2934C43.6955 12.6866 46.6186 13.8261 46.6732 15.6461C46.6186 17.4991 43.5681 18.6567 42.1156 19.0535C40.5176 19.4868 40.5757 19.8616 41.3511 21.2231C42.0829 22.5083 43.3351 25.3913 42.0901 26.7092C40.725 27.9979 37.7764 26.6328 36.455 25.8865C35.0279 25.0784 34.795 25.4133 34.3836 26.8913C33.9905 28.3183 32.8366 31.2378 31.0272 31.2888C29.1416 31.2342 28.0386 28.1873 27.6236 26.7202C27.1031 24.8745 26.5205 25.4024 25.1445 26.145C23.8996 26.8149 21.2057 27.8778 19.968 26.7093C18.7231 25.3878 19.9753 22.512 20.7069 21.2233C21.6133 19.6252 21.3002 19.4177 19.6257 18.9516C18.2279 18.5585 15.4357 17.4081 15.3848 15.6462C15.4393 13.7751 18.4863 12.6392 19.9461 12.2388C21.8318 11.7219 21.2748 11.1503 20.5285 9.75976C19.8587 8.51844 18.7995 5.82095 19.968 4.58323C21.3149 3.30916 24.2963 4.64872 25.5995 5.3987C27.0702 6.2432 27.2486 5.90828 27.6672 4.39034C28.0604 2.96692 29.2289 0.0509832 31.0272 0V0Z" fill="#FD91BA"/>
<path fill-rule="evenodd" clip-rule="evenodd" d="M31.0272 21.5144C34.2635 21.5144 36.899 18.8788 36.899 15.6462C36.899 12.4136 34.2635 9.7744 31.0272 9.7744C27.7948 9.7744 25.1592 12.4136 25.1592 15.6462C25.1592 18.8787 27.7948 21.5144 31.0272 21.5144Z" fill="#FCBF66"/>
<path fill-rule="evenodd" clip-rule="evenodd" d="M38.9048 19.0535C37.3067 19.4868 37.3651 19.8616 38.1403 21.2232C38.8721 22.5083 40.1243 25.3913 38.8793 26.7092C38.81 26.7747 38.7374 26.833 38.6608 26.884C39.9131 27.3026 41.2782 27.4737 42.0899 26.7092C43.335 25.3915 42.0826 22.5083 41.351 21.2232C40.5756 19.8616 40.5174 19.4868 42.1155 19.0535C43.5679 18.6567 46.6184 17.4991 46.673 15.6461C46.6184 13.826 43.6953 12.6865 42.2647 12.2934C40.7357 11.8711 40.4373 11.6745 41.2637 10.2221C42.0172 8.90063 43.3822 5.95195 42.0899 4.58324C41.2928 3.82966 39.8948 3.99712 38.6535 4.40126C38.7336 4.45584 38.81 4.51415 38.8791 4.58324C40.1714 5.95195 38.8063 8.90063 38.0527 10.2221C37.2264 11.6745 37.5249 11.8711 39.0538 12.2934C40.4845 12.6866 43.4075 13.8261 43.4622 15.6461C43.4079 17.4991 40.3574 18.6567 38.9048 19.0535Z" fill="#F585B0"/>
<path fill-rule="evenodd" clip-rule="evenodd" d="M31.0272 21.5144C34.2707 21.5144 36.899 18.886 36.899 15.6462C36.899 12.4027 34.2707 9.7744 31.0272 9.7744C30.4738 9.7744 29.9351 9.85081 29.4219 9.99644C31.8863 10.6953 33.6883 12.9596 33.6883 15.6462C33.6883 18.3292 31.8863 20.5934 29.4219 21.2924C29.9351 21.438 30.4702 21.5144 31.0272 21.5144Z" fill="#F7B551"/>
<path fill-rule="evenodd" clip-rule="evenodd" d="M61.9988 42.5409C62.0607 40.6625 59.3523 39.5049 57.8562 39.1809C57.4849 39.0972 56.3746 38.9916 56.5675 38.4311C56.6768 38.118 57.3902 37.3499 57.6414 36.9894C58.4531 35.8136 59.5561 33.5784 58.4531 32.2643C57.6195 31.3688 56.1779 31.518 54.8929 31.9694C55.0203 32.0496 55.1368 32.1478 55.2423 32.2643C56.3453 33.5784 55.2423 35.8136 54.4306 36.9894C54.1794 37.3499 53.4659 38.118 53.3567 38.4311C53.1638 38.9916 54.274 39.0973 54.6454 39.1809C56.1415 39.5049 58.8499 40.6625 58.788 42.5409C58.6971 43.9971 56.7094 45.1256 53.9974 45.446C54.2268 45.4714 54.4633 45.4934 54.7 45.5079C58.617 45.748 61.8823 44.4194 61.9988 42.5409Z" fill="#54D0F2"/>
<path fill-rule="evenodd" clip-rule="evenodd" d="M53.1747 54.1462C53.3422 53.48 53.3749 53.5674 52.8144 53.1706C50.9651 51.8637 48.5407 51.3067 46.0872 51.7254C47.3759 51.9511 48.5771 52.4462 49.6037 53.1706C50.1643 53.5674 50.1315 53.4801 49.9641 54.1462C49.2833 56.8727 47.1719 59.3009 44.1542 60.4185C43.5681 60.6369 42.9746 60.7933 42.385 60.8953C43.9758 61.1719 45.6977 61.0372 47.365 60.4185C50.3827 59.3009 52.4941 56.8729 53.1747 54.1462Z" fill="#95D6A4"/>
<path fill-rule="evenodd" clip-rule="evenodd" d="M43.1276 45.4568C43.1312 44.2299 42.7454 42.9595 41.9518 41.8493C40.7323 40.1419 38.8431 39.2282 37.0119 39.2683C36.5642 39.2756 36.6115 39.2428 36.4585 39.6615C36.4367 39.7234 36.4149 39.7889 36.3931 39.8508C37.2885 40.2877 38.104 40.9611 38.7411 41.8494C39.9169 43.4947 40.1935 45.4898 39.6511 47.1716C40.2408 47.4591 40.867 47.6448 41.4968 47.7212C42.0027 46.9494 42.5452 46.1994 43.1276 45.4568Z" fill="#95D6A4"/>
<path fill-rule="evenodd" clip-rule="evenodd" d="M24.6968 45.1728C25.9163 43.4656 26.1711 41.3832 25.5414 39.6614C25.3886 39.2427 25.4359 39.2755 24.9881 39.2681C24.1107 39.2499 23.2189 39.4501 22.3961 39.8505C22.9386 41.5325 22.6618 43.5272 21.486 45.1727C21.0237 45.8206 20.4667 46.3521 19.8516 46.7636C20.0736 47.0803 20.2921 47.3971 20.5032 47.721C22.0868 47.5319 23.6412 46.6508 24.6968 45.1728Z" fill="#95D6A4"/>
<path fill-rule="evenodd" clip-rule="evenodd" d="M22.0031 55.3876C20.9619 54.0043 19.4839 52.8722 17.6819 52.2023C16.0111 51.5835 14.2928 51.4487 12.702 51.7254C13.2917 51.8273 13.885 51.9839 14.4712 52.2023C17.711 53.4036 19.9061 56.112 20.4085 59.0789C19.2873 60.0071 17.9003 60.6333 16.4042 60.8954C18.7558 61.2994 21.0856 60.8045 22.9021 59.6067C22.7019 58.0414 22.4035 56.6763 22.0031 55.3876Z" fill="#95D6A4"/>
</svg>
