<svg width="216" height="216" viewBox="0 0 216 216" fill="none" xmlns="http://www.w3.org/2000/svg">
<g clip-path="url(#clip0)">
<path d="M186.3 31.05H161.55V74.25H186.3V31.05Z" fill="#F05540"/>
<path d="M195.75 8.99986H152.1V32.4H195.75V8.99986Z" fill="#F3705A"/>
<path d="M18.9 116.55V216H195.3V116.55C160.65 81.9003 141.3 62.5501 107.1 28.35C72.9 62.9999 53.5499 82.35 18.9 116.55Z" fill="#FFD15C"/>
<path d="M195.75 116.55C161.1 81.9003 141.75 62.5501 107.55 28.35C89.9999 45.4499 76.4998 58.9499 62.9998 72.4499C49.4998 85.9499 35.9999 99.4499 18.9 116.55V136.8C53.5499 102.15 72.9 82.7997 107.1 48.5996C141.75 83.2494 161.1 102.6 195.3 136.8V139.5V116.55H195.75V116.55Z" fill="#F7B64C"/>
<path d="M91.3499 216H38.2502V163.8C38.2502 148.95 50.4002 137.25 64.8 137.25C79.65 137.25 91.3499 149.4 91.3499 163.8V216Z" fill="#415A6B"/>
<path d="M176.4 137.25H107.1V198H176.4V137.25Z" fill="#344A5E"/>
<path d="M138.15 144.45H114.3V190.8H138.15V144.45Z" fill="#8AD7F8"/>
<path d="M169.2 144.45H145.35V190.8H169.2V144.45Z" fill="#8AD7F8"/>
<path d="M211.95 98.0999L117.9 4.05C112.5 -1.35 103.05 -1.35 97.6501 4.05L4.05 98.0999C-1.35 103.5 -1.35 112.95 4.05 118.35C9.45 123.75 18.9 123.75 24.3 118.35L108 34.6499L191.7 118.35C197.1 123.75 206.55 123.75 211.95 118.35C217.35 112.5 217.35 103.5 211.95 98.0999Z" fill="#F3705A"/>
</g>
<defs>
<clipPath id="clip0">
<rect width="216" height="216" fill="white"/>
</clipPath>
</defs>
</svg>
