<svg width="169" height="169" viewBox="0 0 169 169" fill="none" xmlns="http://www.w3.org/2000/svg">
<path d="M84.4998 139.608C114.936 139.608 139.608 114.936 139.608 84.4998C139.608 54.0642 114.936 29.3912 84.4998 29.3912C54.0642 29.3912 29.3912 54.0642 29.3912 84.4998C29.3912 114.936 54.0642 139.608 84.4998 139.608Z" fill="#FFC107"/>
<path d="M84.4998 22.0435C86.5289 22.0435 88.1739 20.3985 88.1739 18.3694V3.67403C88.1739 1.64499 86.5289 0 84.4998 0C82.4708 0 80.8258 1.64499 80.8258 3.67403V18.3698C80.8262 20.3985 82.4708 22.0435 84.4998 22.0435Z" fill="#FFD54F"/>
<path d="M84.4998 146.957C82.4708 146.957 80.8258 148.602 80.8258 150.631V165.326C80.8258 167.355 82.4708 169 84.4998 169C86.5289 169 88.1739 167.355 88.1739 165.326V150.63C88.1739 148.601 86.5289 146.957 84.4998 146.957Z" fill="#FFD54F"/>
<path d="M165.326 80.8261H150.63C148.601 80.8261 146.956 82.4711 146.956 84.5002C146.956 86.5292 148.601 88.1742 150.63 88.1742H165.326C167.355 88.1742 169 86.5292 169 84.5002C169 82.4708 167.355 80.8261 165.326 80.8261Z" fill="#FFD54F"/>
<path d="M22.0435 84.4998C22.0435 82.4708 20.3985 80.8258 18.3694 80.8258H3.67403C1.64499 80.8262 0 82.4708 0 84.4998C0 86.5289 1.64499 88.1739 3.67403 88.1739H18.3698C20.3985 88.1739 22.0435 86.5289 22.0435 84.4998Z" fill="#FFD54F"/>
<path d="M48.2531 29.0681C48.9107 30.2071 50.1268 30.9077 51.4422 30.905C52.0873 30.9074 52.7218 30.7376 53.2791 30.4128C55.0363 29.3981 55.638 27.1514 54.6237 25.3941L47.276 12.6678C46.2499 10.9174 43.9991 10.3301 42.2487 11.3562C40.5145 12.3726 39.9193 14.5942 40.913 16.3415L48.2531 29.0681Z" fill="#FFD54F"/>
<path d="M120.747 139.932C119.72 138.182 117.47 137.595 115.719 138.621C113.986 139.638 113.391 141.859 114.384 143.606L121.731 156.332C122.389 157.471 123.605 158.172 124.92 158.169C125.565 158.172 126.2 158.002 126.757 157.677C128.514 156.662 129.116 154.416 128.102 152.658L120.747 139.932Z" fill="#FFD54F"/>
<path d="M141.769 55.1087C142.414 55.1111 143.048 54.9413 143.606 54.6165L156.332 47.2688C158.13 46.3281 158.825 44.1083 157.884 42.3104C156.944 40.5125 154.724 39.8174 152.926 40.758C152.834 40.8059 152.745 40.8576 152.658 40.913L139.932 48.2607C138.174 49.2754 137.573 51.5225 138.587 53.2794C139.243 54.416 140.456 55.1162 141.768 55.1162V55.1087H141.769Z" fill="#FFD54F"/>
<path d="M25.3941 114.384L12.6678 121.731C10.9105 122.746 10.3088 124.993 11.3231 126.75C11.9792 127.887 13.192 128.587 14.5046 128.587C15.1497 128.589 15.7842 128.419 16.3414 128.095L29.0678 120.747C30.8657 119.806 31.5607 117.586 30.6201 115.788C29.6795 113.991 27.4596 113.295 25.6617 114.236C25.5701 114.284 25.4809 114.336 25.3937 114.391L25.3941 114.384Z" fill="#FFD54F"/>
<path d="M12.6678 47.2684L25.3941 54.6161C25.9496 54.9396 26.581 55.1097 27.2237 55.1083C29.2527 55.1083 30.8974 53.4633 30.8974 51.4343C30.8974 50.122 30.1971 48.9093 29.0605 48.2528L16.3342 40.9051C14.6217 39.8167 12.3512 40.3223 11.2628 42.0345C10.1744 43.7466 10.6801 46.0175 12.3922 47.1059C12.4793 47.1613 12.5686 47.213 12.6602 47.2609L12.6678 47.2684Z" fill="#FFD54F"/>
<path d="M156.332 121.731L143.606 114.384C141.893 113.295 139.623 113.801 138.535 115.513C137.446 117.225 137.952 119.496 139.664 120.584C139.751 120.64 139.841 120.691 139.932 120.739L152.658 128.087C153.216 128.412 153.85 128.582 154.495 128.579C156.524 128.579 158.169 126.934 158.169 124.905C158.169 123.593 157.469 122.38 156.332 121.724V121.731H156.332Z" fill="#FFD54F"/>
<path d="M115.728 30.4128C116.286 30.7376 116.92 30.9074 117.565 30.905C118.88 30.9077 120.096 30.2068 120.754 29.0681L128.102 16.3418C129.104 14.578 128.487 12.3351 126.723 11.3324C124.976 10.3394 122.755 10.9343 121.738 12.6681L114.391 25.3944C113.375 27.1493 113.974 29.3957 115.728 30.4128Z" fill="#FFD54F"/>
<path d="M53.2718 138.587C51.5145 137.573 49.2678 138.175 48.2531 139.932L40.9054 152.658C39.8911 154.416 40.4928 156.662 42.2501 157.677C42.8077 158.002 43.4418 158.172 44.0869 158.169C45.402 158.172 46.6185 157.471 47.276 156.332L54.6237 143.606C55.6363 141.848 55.0322 139.601 53.2739 138.589C53.2732 138.588 53.2725 138.588 53.2718 138.587Z" fill="#FFD54F"/>
</svg>
