<svg width="275" height="321" viewBox="0 0 275 321" fill="none" xmlns="http://www.w3.org/2000/svg">
<path d="M256.586 118.046C263.432 108.457 267.501 96.7514 267.501 84.0719C267.501 51.7105 241.267 25.4769 208.906 25.4769C208.426 25.4769 207.962 25.5371 207.485 25.549C197.49 10.1823 180.198 0 160.501 0C137.651 0 118.03 13.6945 109.303 33.3069C74.2845 42.4548 48.4052 74.2106 48.4052 112.095C48.4052 132.925 56.2828 151.869 69.1373 166.281C68.9153 168.571 68.7855 170.889 68.7855 173.238C68.7855 212.635 100.723 244.572 140.119 244.572C144.413 244.572 161.514 244.189 165.595 243.457L167.322 225.802C177.415 231.272 188.975 234.381 201.261 234.381C240.658 234.381 272.595 202.444 272.595 163.048C272.596 145.979 266.585 130.324 256.586 118.046Z" fill="#AFD755"/>
<path d="M165.596 217.759C157.42 219.868 148.368 219.797 138.693 215.227C125.589 209.039 116.094 196.46 114.808 182.026C114.303 176.357 114.976 170.909 116.592 165.884C117.227 163.908 116.41 161.808 114.805 160.492C102.279 150.218 94.2624 134.654 94.2624 117.19C94.2624 94.5264 107.739 75.0582 127.097 66.2326C129.117 65.3116 130.42 63.3035 130.196 61.0947C130.028 59.4339 129.929 57.753 129.929 56.0471C129.929 29.5032 148.402 7.32156 173.18 1.52475C169.098 0.576797 164.872 0 160.501 0C137.651 0 118.03 13.6945 109.303 33.3069C74.2845 42.4548 48.4052 74.2106 48.4052 112.095C48.4052 132.925 56.2828 151.869 69.1373 166.281C68.9153 168.571 68.7855 170.889 68.7855 173.238C68.7855 212.635 100.723 244.572 140.119 244.572C144.413 244.572 161.514 244.189 165.595 243.457V227.886V217.759H165.596Z" fill="#96BE4B"/>
<path d="M155.405 219.095C155.242 219.095 155.084 219.072 154.921 219.071L150.31 315.905H180.882L176.369 221.157C176.208 217.763 172.81 215.316 169.63 216.511C165.203 218.175 160.415 219.095 155.405 219.095Z" fill="#AF6E5A"/>
<path d="M176.369 221.157C176.208 217.763 172.81 215.316 169.63 216.511C165.203 218.175 160.415 219.096 155.405 219.096C155.242 219.096 155.084 219.073 154.921 219.071L150.31 315.905H165.596V232.958C165.596 230.765 167 228.818 169.08 228.124L176.583 225.623L176.369 221.157Z" fill="#965A50"/>
<path d="M191.072 321H140.12C137.306 321 135.024 318.721 135.024 315.905C135.024 313.088 137.306 310.81 140.12 310.81H191.072C193.886 310.81 196.167 313.088 196.167 315.905C196.167 318.721 193.886 321 191.072 321Z" fill="#96BE4B"/>
<g clip-path="url(#clip0)">
<path d="M122.5 81.8674C122.346 82.1604 122.205 82.4592 122.076 82.7616L121.831 84.287L122.5 85.2963L122.974 84.0039L122.5 81.8674Z" fill="#8E6252"/>
<path d="M122.5 81.8674V85.2963L123.525 85.2392L124.309 84.3152C124.836 82.8459 125.807 81.3032 127.056 80.3994C127.732 79.9103 128.438 79.647 129.117 79.647C129.117 78.7213 129.117 77.9258 129.117 77C126.204 77 123.856 79.2723 122.5 81.8674Z" fill="#805142"/>
<path d="M121.712 85.0342C118.971 83.003 115.394 81.7736 112.122 82.0852C108.855 82.3953 106.135 84.1442 104.109 86.7249C97.9105 94.6196 98.7163 109.72 106.596 117.517C109.524 120.414 113.286 122.179 117.365 121.986C118.949 121.91 121.023 121.477 122.5 120.798L124.573 103.691L122.5 85.2962C122.486 85.2926 122.098 85.3203 121.712 85.0342Z" fill="#FC445F"/>
<path d="M128.238 122C132.117 122 135.646 120.245 138.404 117.517C144.011 111.968 146.013 102.746 144.524 95.0917C142.801 86.2418 136.447 79.9326 127.825 82.7002C126.238 83.2094 124.682 84.0009 123.288 85.0342C123.049 85.2106 122.775 85.2958 122.5 85.2963V103.047V120.798C123.951 121.465 126.24 122 128.238 122Z" fill="#D50F55"/>
<path d="M108.724 78.9609C108.712 79.4592 108.745 79.9628 108.826 80.4663C109.845 86.8603 117.442 89.7934 122.497 85.5534C122.571 82.376 120.787 79.2914 117.745 77.8297C114.694 76.3638 111.177 76.9034 108.724 78.9609Z" fill="#97DE3D"/>
<path d="M130.441 96.9493C128.826 97.8838 127.794 99.6112 127.794 101.533C127.794 103.452 128.823 105.181 130.441 106.117C132.056 105.183 133.088 103.455 133.088 101.533C133.088 99.6141 132.058 97.8852 130.441 96.9493Z" fill="#E1DDDB"/>
<path d="M114.591 96.9493C112.976 97.8838 111.944 99.6112 111.944 101.533C111.944 103.452 112.973 105.181 114.591 106.117C116.206 105.183 117.238 103.455 117.238 101.533C117.238 99.6141 116.209 97.8852 114.591 96.9493Z" fill="#E1DDDB"/>
</g>
<g clip-path="url(#clip1)">
<path d="M199.5 56.8674C199.347 57.1604 199.205 57.4592 199.077 57.7616L198.831 59.287L199.5 60.2963L199.974 59.0039L199.5 56.8674Z" fill="#8E6252"/>
<path d="M199.5 56.8674V60.2963L200.525 60.2392L201.309 59.3152C201.836 57.8459 202.807 56.3032 204.056 55.3994C204.732 54.9103 205.438 54.647 206.117 54.647C206.117 53.7213 206.117 52.9258 206.117 52C203.205 52 200.856 54.2723 199.5 56.8674Z" fill="#805142"/>
<path d="M198.712 60.0342C195.971 58.003 192.394 56.7736 189.122 57.0852C185.855 57.3953 183.135 59.1442 181.109 61.7249C174.911 69.6196 175.716 84.72 183.596 92.5168C186.524 95.4141 190.286 97.179 194.365 96.9855C195.949 96.9104 198.023 96.4769 199.5 95.7981L201.573 78.691L199.5 60.2962C199.486 60.2926 199.098 60.3203 198.712 60.0342Z" fill="#FC445F"/>
<path d="M205.238 97C209.117 97 212.646 95.2452 215.404 92.5168C221.011 86.9681 223.013 77.7455 221.524 70.0917C219.801 61.2418 213.447 54.9326 204.825 57.7002C203.238 58.2094 201.682 59.0009 200.288 60.0342C200.049 60.2106 199.775 60.2958 199.5 60.2963V78.0474V95.7983C200.951 96.4652 203.24 97 205.238 97Z" fill="#D50F55"/>
<path d="M185.724 53.9609C185.712 54.4592 185.745 54.9628 185.826 55.4663C186.845 61.8603 194.442 64.7934 199.497 60.5534C199.571 57.376 197.787 54.2914 194.745 52.8297C191.694 51.3638 188.177 51.9034 185.724 53.9609Z" fill="#97DE3D"/>
<path d="M207.441 71.9493C205.826 72.8838 204.794 74.6112 204.794 76.5332C204.794 78.4522 205.823 80.1811 207.441 81.1172C209.056 80.1826 210.088 78.4553 210.088 76.5332C210.088 74.6141 209.058 72.8852 207.441 71.9493Z" fill="#E1DDDB"/>
<path d="M191.591 71.9493C189.976 72.8838 188.944 74.6112 188.944 76.5332C188.944 78.4522 189.973 80.1811 191.591 81.1172C193.206 80.1826 194.238 78.4553 194.238 76.5332C194.238 74.6141 193.209 72.8852 191.591 71.9493Z" fill="#E1DDDB"/>
</g>
<g clip-path="url(#clip2)">
<path d="M185.5 148.867C185.346 149.16 185.205 149.459 185.076 149.762L184.831 151.287L185.5 152.296L185.974 151.004L185.5 148.867Z" fill="#8E6252"/>
<path d="M185.5 148.867V152.296L186.525 152.239L187.309 151.315C187.836 149.846 188.807 148.303 190.056 147.399C190.732 146.91 191.438 146.647 192.117 146.647C192.117 145.721 192.117 144.926 192.117 144C189.204 144 186.856 146.272 185.5 148.867Z" fill="#805142"/>
<path d="M184.712 152.034C181.971 150.003 178.394 148.774 175.122 149.085C171.855 149.395 169.135 151.144 167.109 153.725C160.911 161.62 161.716 176.72 169.596 184.517C172.524 187.414 176.286 189.179 180.365 188.986C181.949 188.91 184.023 188.477 185.5 187.798L187.573 170.691L185.5 152.296C185.486 152.293 185.098 152.32 184.712 152.034Z" fill="#FC445F"/>
<path d="M191.238 189C195.117 189 198.646 187.245 201.404 184.517C207.011 178.968 209.013 169.746 207.524 162.092C205.801 153.242 199.447 146.933 190.825 149.7C189.238 150.209 187.682 151.001 186.288 152.034C186.049 152.211 185.775 152.296 185.5 152.296V170.047V187.798C186.951 188.465 189.24 189 191.238 189Z" fill="#D50F55"/>
<path d="M171.724 145.961C171.712 146.459 171.745 146.963 171.826 147.466C172.845 153.86 180.442 156.793 185.497 152.553C185.571 149.376 183.787 146.291 180.745 144.83C177.694 143.364 174.177 143.903 171.724 145.961Z" fill="#97DE3D"/>
<path d="M193.441 163.949C191.826 164.884 190.794 166.611 190.794 168.533C190.794 170.452 191.823 172.181 193.441 173.117C195.056 172.183 196.088 170.455 196.088 168.533C196.088 166.614 195.058 164.885 193.441 163.949Z" fill="#E1DDDB"/>
<path d="M177.591 163.949C175.976 164.884 174.944 166.611 174.944 168.533C174.944 170.452 175.973 172.181 177.591 173.117C179.206 172.183 180.238 170.455 180.238 168.533C180.238 166.614 179.209 164.885 177.591 163.949Z" fill="#E1DDDB"/>
</g>
<defs>
<clipPath id="clip0">
<rect width="45" height="45" fill="white" transform="translate(100 77)"/>
</clipPath>
<clipPath id="clip1">
<rect width="45" height="45" fill="white" transform="translate(177 52)"/>
</clipPath>
<clipPath id="clip2">
<rect width="45" height="45" fill="white" transform="translate(163 144)"/>
</clipPath>
</defs>
</svg>
