<svg width="284" height="173" viewBox="0 0 284 173" fill="none" xmlns="http://www.w3.org/2000/svg">
<g clip-path="url(#clip0)">
<path d="M124.07 18.2453C121.535 17.8068 119.036 19.2785 118.243 21.7258C113.419 36.6192 99.6365 35.7237 96.5345 53.6534C93.1604 73.1558 109.171 75.9257 105.797 95.4282C102.423 114.93 86.4124 112.16 83.0383 131.663C79.6642 151.166 95.6745 153.935 92.3004 173.438C88.9262 192.941 72.9159 190.171 69.5415 209.675C66.4393 227.606 79.7217 231.393 79.2616 247.043C79.1862 249.615 81.0447 251.84 83.58 252.279L174.745 268.051C178.013 268.616 180.985 266.023 180.84 262.71C180.227 248.627 168.161 244.43 171.133 227.251C174.507 207.748 190.517 210.518 193.891 191.014C197.266 171.511 181.255 168.741 184.629 149.239C188.003 129.737 204.014 132.507 207.388 113.004C210.762 93.5018 194.751 90.7319 198.126 71.2294C201.097 54.0522 213.872 54.1531 219.181 41.0963C220.43 38.0247 218.502 34.5832 215.234 34.0179L124.07 18.2458L124.07 18.2453Z" fill="#61A2F9"/>
<path d="M134.223 222.416C136.129 211.401 141.794 206.51 146.792 202.195C151.472 198.156 155.514 194.667 156.982 186.179C158.45 177.692 155.816 173.048 152.765 167.671C149.507 161.928 145.814 155.419 147.72 144.404C149.626 133.388 155.291 128.499 160.289 124.184C164.968 120.145 169.01 116.656 170.478 108.17C171.947 99.6827 169.312 95.0385 166.261 89.6619C163.003 83.919 159.31 77.4103 161.216 66.3948C163.122 55.3792 168.787 50.4896 173.785 46.1751C178.465 42.1358 182.506 38.6471 183.974 30.1603C184.312 28.2094 186.167 26.9022 188.117 27.2396C190.068 27.577 191.375 29.4314 191.038 31.3823C189.132 42.3974 183.467 47.287 178.469 51.6015C173.789 55.6408 169.748 59.1299 168.279 67.6168C166.811 76.1037 169.446 80.7478 172.496 86.1245C175.755 91.8673 179.447 98.376 177.542 109.392C175.636 120.407 169.971 125.296 164.973 129.611C160.293 133.65 156.252 137.139 154.783 145.626C153.315 154.113 155.95 158.757 159 164.134C162.258 169.877 165.951 176.386 164.045 187.401C162.14 198.417 156.474 203.307 151.476 207.622C146.797 211.662 142.755 215.151 141.287 223.638C139.818 232.126 142.453 236.77 145.503 242.147C148.761 247.891 152.454 254.4 150.548 265.415C150.211 267.366 148.356 268.673 146.406 268.336C144.455 267.999 143.147 266.144 143.485 264.193C144.953 255.706 142.319 251.062 139.268 245.685C136.011 239.941 132.317 233.432 134.223 222.416Z" fill="#90D8F9"/>
<path d="M100.36 216.557C102.265 205.542 107.93 200.652 112.929 196.337C117.608 192.297 121.65 188.808 123.118 180.32C124.587 171.833 121.952 167.19 118.902 161.812C115.643 156.07 111.951 149.56 113.856 138.545C115.762 127.53 121.427 122.64 126.425 118.326C131.105 114.286 135.146 110.798 136.615 102.311C138.083 93.824 135.448 89.1799 132.398 83.8032C129.139 78.0603 125.447 71.5517 127.352 60.5361C129.258 49.5205 134.923 44.6309 139.921 40.3164C144.601 36.2771 148.643 32.7885 150.111 24.3016C150.448 22.3507 152.303 21.0435 154.254 21.3809C156.204 21.7184 157.512 23.5727 157.174 25.5236C155.268 36.5387 149.603 41.4284 144.605 45.7429C139.926 49.7821 135.884 53.2712 134.416 61.7581C132.948 70.245 135.582 74.8891 138.633 80.2658C141.891 86.0087 145.584 92.5173 143.678 103.533C141.772 114.548 136.107 119.438 131.109 123.752C126.43 127.791 122.388 131.28 120.92 139.767C119.451 148.254 122.086 152.898 125.136 158.275C128.395 164.018 132.087 170.527 130.182 181.542C128.276 192.558 122.611 197.448 117.613 201.763C112.933 205.803 108.891 209.292 107.423 217.779C105.954 226.267 108.589 230.911 111.64 236.289C114.898 242.032 118.59 248.541 116.685 259.557C116.347 261.508 114.492 262.815 112.542 262.477C110.592 262.14 109.284 260.286 109.621 258.335C111.09 249.847 108.455 245.203 105.405 239.826C102.146 234.083 98.4537 227.573 100.36 216.557Z" fill="#90D8F9"/>
</g>
<defs>
<clipPath id="clip0">
<rect width="244.678" height="244.678" fill="white" transform="translate(283.242 42.146) rotate(99.8154)"/>
</clipPath>
</defs>
</svg>
